<svg id="Layer_1" xmlns="http://www.w3.org/2000/svg" viewBox="0 328.3 1280 143.4"><path fill="#FFF" d="M139.9 470h23.9v-64c0-28.2-15.4-46.9-41.8-46.9-11.1 0-25.6 3.4-35.8 17.1-6.8-10.3-18.8-17.2-34.1-17.2-10.2 0-20.5 4.3-28.2 11.9v-10.2H0V470h23.9v-69.1c4.3-12.8 12.8-18.8 23.9-18.8 15.4 0 23 12.8 23 24.7V470h23v-69.1c4.3-12.8 12.8-18.8 23.9-18.8 15.4 0 22.2 12.8 22.2 24.7V470zm177.5-54.6c0 18.8-13.7 33.3-31.6 33.3-18.8 0-31.6-14.5-31.6-33.3s12.8-33.3 31.6-33.3 31.6 14.5 31.6 33.3m24.8 0c0-31.6-23.9-56.3-56.3-56.3s-56.3 24.7-56.3 56.3 23.9 56.3 56.3 56.3 56.3-24.8 56.3-56.3M484.7 470h23.9v-64c0-28.2-17.1-46.9-44.4-46.9-11.1 0-23 3.4-30.7 11.9v-10.2h-23.9V470h23.9v-68.3c4.3-12.8 13.7-18.8 25.6-18.8 16.2 0 24.7 12.8 24.7 24.7V470h.9zm177.5-54.6c0 18.8-13.7 33.3-31.6 33.3-18.8 0-31.6-14.5-31.6-33.3s12.8-33.3 31.6-33.3 31.6 14.5 31.6 33.3m24.7 0c0-31.6-23.9-56.3-56.3-56.3s-56.3 24.7-56.3 56.3 23.9 56.3 56.3 56.3 56.3-24.8 56.3-56.3m124.6-33.3l5.1-21.3h-33.3v-32.4l-23.9 11.9v21.3h-21.3l5.1 21.3h16.2v54.6c0 20.5 12.8 33.3 33.3 33.3H814v-23h-15.4c-12.8 0-15.4-5.1-15.4-16.2v-49.5h28.3zM960 423h43.5v-23.9h-21.3c-6.8-23.9-27.3-41-54.6-41s-47.8 17.1-54.6 41h-19.6V423h43.5v-8.5c0-18.8 13.7-32.4 31.6-32.4 18.8 0 31.6 14.5 31.6 33.3l-.1 7.6zm151-40.9l5.1-21.3h-33.3v-32.4l-23.9 11.9v21.3h-21.3l5.1 21.3h16.2v54.6c0 20.5 12.8 33.3 33.3 33.3h21.3v-23h-15.4c-12.8 0-15.4-5.1-15.4-16.2v-49.5h28.3zm142.5 21.3h-56.3c4.3-13.7 15.4-22.2 28.2-22.2 15.3 0 25.6 7.7 28.1 22.2m26.5 18.8v-6.8c-1.7-35-22.2-56.3-52.1-56.3-31.6 0-55.5 24.7-55.5 56.3s23.9 56.3 56.3 56.3c18.8 0 35-7.7 44.4-18.8l-16.2-17.1c-6 6-15.4 12.8-28.2 12.8-16.2 0-29-10.2-31.6-25.6h82.8v-.8z"/></svg>